<svg width="360" height="640" viewBox="0 0 360 640" fill="none" xmlns="http://www.w3.org/2000/svg">
<g clip-path="url(#clip0_299_1)">
<rect width="360" height="640" fill="white"/>
<circle cx="29.5" cy="122.5" r="130.5" fill="#2DDA93"/>
<g filter="url(#filter0_d_299_1)">
<circle cx="99" cy="371" r="70" fill="#2DDA93"/>
</g>
<circle cx="261" cy="479" r="25" fill="#2DDA93"/>
<circle cx="215" cy="16" r="46" fill="#2DDA93"/>
<circle cx="15" cy="616" r="46" fill="#2DDA93"/>
<path d="M-10.0085 443.417C-11.3587 447.355 -13.7633 453.052 -16.3673 458.347C-19.36 464.433 -22.36 469.492 -24.7884 472.463C-28.035 476.435 -27.3448 482.329 -23.2468 485.629C-19.1489 488.928 -13.1949 488.383 -9.94835 484.411C-6.47695 480.164 -2.84816 474.046 0.700222 466.83C3.62788 460.876 6.32794 454.479 7.93882 449.781C9.60365 444.926 6.93562 439.565 1.97962 437.808C-2.97639 436.05 -8.34364 438.562 -10.0085 443.417Z" fill="#F5D0C3"/>
<path d="M-13.3944 442.693C-1.30565 449.933 11.7798 450.317 15.8327 443.55C19.8857 436.782 13.3714 425.427 1.28262 418.187C-10.8061 410.947 -23.8916 410.563 -27.9445 417.33C-31.9975 424.098 -25.4832 435.453 -13.3944 442.693Z" fill="#2D3656"/>
<path d="M-9.09996 432.696L19.0736 434.17C19.0736 434.17 17.5644 442.152 15.3203 449.569C13.3303 456.146 10.6514 462.214 9.58044 462.863C7.30094 464.244 -14.4214 455.563 -15.2803 452.718C-16.1392 449.873 -9.09996 432.696 -9.09996 432.696Z" fill="#2D3656"/>
<path d="M-5.29641 499.824C-3.89067 496.861 -6.15439 491.051 -8.53706 486.556C-10.7673 482.347 -14.4283 479.22 -18.436 476.584L-24.1683 472.811C-24.6018 472.493 -25.208 472.593 -25.4967 473.029L-32.3401 483.374C-32.7101 483.934 -32.5442 484.696 -31.9684 485.074L-7.59953 501.114C-7.00445 501.505 -5.6649 500.411 -5.29641 499.824Z" fill="#283F51"/>
<mask id="mask0_299_1" style="mask-type:alpha" maskUnits="userSpaceOnUse" x="-33" y="472" width="29" height="30">
<path d="M-5.29641 499.824C-3.89067 496.861 -6.15439 491.051 -8.53706 486.556C-10.7673 482.347 -14.4283 479.22 -18.436 476.584L-24.1683 472.811C-24.6018 472.493 -25.208 472.593 -25.4967 473.029L-32.3401 483.374C-32.7101 483.934 -32.5442 484.696 -31.9684 485.074L-7.59953 501.114C-7.00445 501.505 -5.6649 500.411 -5.29641 499.824Z" fill="white"/>
</mask>
<g mask="url(#mask0_299_1)">
</g>
<path d="M36.3424 412.486C33.7612 411.177 29.9497 408.517 29.3508 407.224C25.4849 409.321 22.4643 414.768 20.666 418.824C18.8676 422.881 19.6523 430.292 20.2358 432.879C21.6921 432.35 26.2779 432.774 28.601 433.929C30.9242 435.084 35.1056 437.951 36.3283 439.519C38.0174 437.138 41.3529 432.183 43.3852 427.736C45.4177 423.289 44.8098 415.754 44.581 413.404C43.0068 413.74 38.9234 413.796 36.3424 412.486Z" fill="#FFEB35"/>
<path d="M33.328 421.488C36.5828 422.829 39.5472 423.106 39.9491 422.108C40.3511 421.11 38.0384 419.214 34.7836 417.873C31.5288 416.533 28.5645 416.255 28.1625 417.253C27.7606 418.251 30.0732 420.147 33.328 421.488Z" fill="#FFBA35"/>
<path d="M26.912 421.038C29.051 422.734 34.8456 425.834 39.0246 426.029" stroke="#CEBB13" stroke-width="5"/>
<rect x="5.6463" y="358.703" width="53.8143" height="28.422" rx="14.211" transform="rotate(30.9182 5.6463 358.703)" fill="#415D77"/>
<path d="M-46.8955 401.214C-45.281 395.522 -12.4322 368.769 2.73707 365.701L47.3373 389.833C49.339 415.171 40.2609 450.75 36.0727 452.321C31.8845 453.891 25.5972 444.632 -5.17152 426.204C-35.9403 407.776 -48.5101 406.907 -46.8955 401.214Z" fill="#415D77"/>
<path d="M-13.2702 373.166C-15.0368 373.998 -16.899 375.083 -19.2838 376.606C-19.9389 377.025 -20.606 377.458 -21.4857 378.035C-25.605 380.737 -26.3867 381.235 -27.5774 381.87C-32.1315 384.302 -33.7414 389.966 -31.1734 394.521C-28.6054 399.076 -22.8319 400.798 -18.2779 398.367C-16.3556 397.341 -15.5661 396.838 -10.7603 393.686C-9.93724 393.146 -9.32608 392.749 -8.7451 392.378C-6.97383 391.247 -5.68715 390.497 -4.80399 390.081C-0.127671 387.88 1.76802 382.309 -0.569859 377.638C-2.90773 372.967 -8.59386 370.965 -13.2702 373.166Z" fill="#F5D0C3"/>
<path d="M44.17 414.304C52.6438 410.758 57.0861 409.089 66.1124 405.913L66.1848 405.887C73.2926 403.386 77.1511 401.957 83.2183 399.498C88.0146 397.554 90.2163 392.099 88.1357 387.316C86.0552 382.532 80.4804 380.231 75.6841 382.175C69.9371 384.505 66.3226 385.843 59.4656 388.256L59.3934 388.281C50.0561 391.567 45.3039 393.353 36.4431 397.061C31.6702 399.058 29.5307 404.538 31.6644 409.299C33.7981 414.061 39.3971 416.302 44.17 414.304Z" fill="#F4D4C9"/>
<path d="M83.0593 388.081L82.2327 392.978C82.1668 393.368 81.7918 393.625 81.3951 393.551C80.9983 393.476 80.7301 393.1 80.796 392.71L81.6226 387.813C81.6885 387.422 82.0635 387.166 82.4603 387.24C82.857 387.314 83.1252 387.691 83.0593 388.081Z" fill="#BBBEC3"/>
<path d="M86.4445 389.502C83.7697 391.413 79.9826 390.783 77.9857 388.096C75.9889 385.409 76.5385 381.683 79.2134 379.772C81.8882 377.862 85.6753 378.491 87.6722 381.178C89.669 383.865 89.1194 387.592 86.4445 389.502Z" fill="#DE7761"/>
<path d="M87.7741 381.195C85.0992 383.106 81.3121 382.476 79.3153 379.789C77.3184 377.102 77.868 373.376 80.5429 371.465C83.2177 369.555 87.0049 370.184 89.0017 372.871C90.9985 375.558 90.4489 379.285 87.7741 381.195Z" fill="#C96852"/>
<path d="M88.7552 372.419C86.1448 374.284 82.4489 373.669 80.5002 371.047C78.5515 368.425 79.0878 364.788 81.6982 362.924C84.3086 361.059 88.0045 361.674 89.9532 364.296C91.9019 366.918 91.3655 370.555 88.7552 372.419Z" fill="#F2856D"/>
<path d="M87.3173 359.917L86.4907 364.814C86.4248 365.204 86.0498 365.46 85.6531 365.386C85.2563 365.312 84.9881 364.936 85.054 364.545L85.8806 359.648C85.9465 359.258 86.3215 359.002 86.7182 359.076C87.115 359.15 87.3832 359.526 87.3173 359.917Z" fill="#BBBEC3"/>
<path d="M-7.41885 363.733C-3.78782 360.829 1.56695 361.395 4.71338 364.948L9.86019 370.762C13.1267 374.451 12.8071 379.989 9.14615 383.13L-3.50398 393.986C-3.50398 393.986 -20.9691 377.471 -20.1787 375.152C-19.7032 373.758 -12.8255 368.056 -7.41885 363.733Z" fill="#E5A850"/>
<path d="M36.8279 392.157C32.3127 393.434 29.7675 398.049 31.0071 402.582L33.1776 410.517C34.4066 415.011 38.9348 417.872 43.5061 416.954C50.5562 415.539 59.7157 413.505 60.2972 412.391C61.2498 410.565 55.0546 389.374 53.7292 388.376C52.92 387.768 43.8052 390.183 36.8279 392.157Z" fill="#E5A850"/>
<path d="M1.58736 369.651C4.50039 367.483 8.47765 367.367 11.6588 369.284L29.1759 379.839L44.1817 390.464C47.3242 392.689 48.7868 396.562 47.7707 400.18C44.864 410.531 38.6332 431.155 33.6336 436.971C26.8729 444.834 18.7326 445.349 12.4532 443.939C6.17373 442.53 -22.6232 425.595 -26.722 419.311C-30.8207 413.027 -33.3911 407.834 -30.0825 398.81C-27.5643 391.942 -7.74106 376.593 1.58736 369.651Z" fill="#E5A850"/>
<path d="M18.477 392.359C23.6182 395.438 30.3816 393.6 33.5834 388.254C36.7853 382.908 35.2131 376.078 30.0719 372.999C24.9307 369.92 18.1673 371.758 14.9655 377.104C11.7637 382.45 13.3358 389.28 18.477 392.359Z" fill="#C18733"/>
<path d="M-2.11298 396.762C-1.35115 397.219 -0.373278 396.987 0.071148 396.245C0.515574 395.503 0.258264 394.531 -0.503571 394.075C-1.26541 393.619 -2.24327 393.851 -2.6877 394.593C-3.13213 395.335 -2.87482 396.306 -2.11298 396.762Z" fill="white"/>
<path d="M-1.79107 396.225C-1.33397 396.499 -0.747245 396.36 -0.480588 395.915C-0.213932 395.469 -0.368319 394.886 -0.82542 394.613C-1.28252 394.339 -1.86924 394.478 -2.1359 394.923C-2.40256 395.368 -2.24817 395.951 -1.79107 396.225Z" fill="black"/>
<path d="M6.94727 391.633L16.4015 390.117L20.0263 392.288C20.0263 392.288 20.8697 396.119 18.6525 405.946C16.7562 406.933 15.3562 406.094 11.4758 405.882C14.1965 401.727 16.2779 395.852 16.2779 395.852C16.2779 395.852 11.4682 404.896 8.0621 407.457C3.67314 405.931 3.512 401.565 3.512 401.565C3.512 401.565 9.37391 399.399 12.358 394.874C10.9357 396.347 8.66303 397.924 8.30213 397.336C7.7379 396.418 6.94727 391.633 6.94727 391.633Z" fill="#426789"/>
<rect x="24.791" y="370.671" width="11.2697" height="16.4655" rx="5.63487" transform="rotate(30.9182 24.791 370.671)" fill="#EBBAAA"/>
<path d="M19.892 390.709C11.7782 385.85 13.6216 374.828 14.3992 370.771C12.8164 367.659 7.74081 361.656 6.99848 367.005C6.07057 373.691 6.28253 384.622 18.9822 392.228C21.6238 393.81 25.134 395.597 29.4583 395.939C35.0939 396.385 42.0169 391.724 43.883 390.178L41.3776 387.512L38.3218 385.765C33.4401 388.779 28.0059 395.569 19.892 390.709Z" fill="#415D77"/>
<path d="M1.49058 377.997C-6.22276 379.614 -14.9079 380.98 -23.5941 381.91C-28.7775 382.465 -32.4263 387.077 -31.7438 392.211C-31.0614 397.345 -26.3061 401.056 -21.1227 400.501C-11.8117 399.504 -2.50263 398.04 5.83143 396.292C10.9203 395.225 14.0739 390.265 12.8753 385.213C11.6766 380.16 6.57948 376.93 1.49058 377.997Z" fill="#F5D0C3"/>
<path d="M15.2751 351.466C19.3096 353.882 24.3898 352.819 26.6222 349.092C28.8546 345.365 27.3938 340.384 23.3593 337.968C19.3249 335.552 14.2447 336.615 12.0123 340.342C9.77989 344.069 11.2407 349.05 15.2751 351.466Z" fill="#EBBAAA"/>
<path d="M56.3575 376.782C60.3919 379.198 65.4721 378.135 67.7045 374.408C69.9369 370.681 68.4761 365.7 64.4417 363.284C60.4073 360.868 55.327 361.931 53.0946 365.658C50.8622 369.385 52.3231 374.366 56.3575 376.782Z" fill="#EBBAAA"/>
<path d="M26.6068 330.386C30.3206 324.939 37.3829 322.792 43.7063 325.188L52.6 328.557C55.8501 329.788 58.8411 331.628 61.4061 333.972L74.6982 346.12L65.5407 365.69L63.7177 369.909C57.4069 384.514 39.4082 390.021 25.4011 381.632C11.6377 373.388 7.83671 355.361 17.2274 342.866L26.6068 330.386Z" fill="#F4D4CA"/>
<path d="M26.4054 366.246C28.5333 369.684 32.9964 372.179 37.3204 372.83C37.9187 372.92 38.4664 372.516 38.5437 371.927C38.6211 371.338 38.1988 370.788 37.6005 370.698C33.8796 370.137 30.0079 367.973 28.2622 365.152C27.9444 364.638 27.2711 364.467 26.7584 364.769C26.2456 365.071 26.0876 365.732 26.4054 366.246Z" fill="#C99584"/>
<path d="M31.3471 341.794L38.3148 346.6C39.1147 347.151 40.2011 346.968 40.7412 346.191C41.2814 345.414 41.0709 344.336 40.271 343.784L33.3032 338.979C32.5033 338.427 31.417 338.61 30.8768 339.387C30.3366 340.165 30.5472 341.242 31.3471 341.794Z" fill="#272727"/>
<path d="M49.6528 353.457L57.0953 357.214C57.9627 357.652 59.0091 357.32 59.4324 356.474C59.8557 355.627 59.4957 354.585 58.6283 354.148L51.1858 350.391C50.3184 349.953 49.2721 350.284 48.8488 351.131C48.4254 351.978 48.7854 353.019 49.6528 353.457Z" fill="#272727"/>
<path d="M53.3403 333.931C42.6605 327.535 33.6111 322.115 29.0914 328.377C24.8415 332.997 24.6831 330.315 27.696 324.714C36.6931 311.064 54.6003 317.767 61.2592 321.756C64.4606 328.791 64.0199 340.328 53.3403 333.931Z" fill="#272727"/>
<path d="M27.1893 325.692C27.6065 324.923 28.5955 324.668 29.3655 325.129C30.1642 325.607 30.3886 326.651 29.8494 327.381L20.7165 339.735C20.5642 339.941 20.2756 339.995 20.05 339.86C19.8154 339.72 19.7305 339.424 19.8577 339.19L27.1893 325.692Z" fill="#272727"/>
<path d="M54.1233 334.4C64.803 340.797 74.0549 346.338 70.4681 353.325C68.4011 359.253 70.5676 358.296 74.3529 352.658C82.1409 338.283 67.8417 325.698 61.1826 321.71C53.4693 322.208 43.4436 328.004 54.1233 334.4Z" fill="#272727"/>
<path d="M51.2144 336.586C50.1226 334.088 48.1938 331.448 43.8883 328.499L55.0397 331.765L63.7013 340.366C59.4597 338.123 55.5875 337.436 52.602 337.48C52.005 337.489 51.453 337.132 51.2144 336.586Z" fill="#272727"/>
<path d="M38.4643 355.772C37.1149 356.646 36.0693 357.503 35.3853 358.504C34.2022 360.235 34.5169 362.093 36.607 363.345L37.8546 361.262C37.0588 360.785 37.0164 360.535 37.4475 359.904C37.9028 359.238 38.7569 358.538 39.8553 357.827L38.4643 355.772Z" fill="#EBBAAA"/>
<path d="M48.4392 363.107C49.1177 363.138 50.1742 363.846 50.5434 364.408C51.0744 365.216 52.1582 365.461 52.9643 364.956C53.7703 364.45 53.9933 363.385 53.4624 362.577C52.507 361.123 50.4555 359.748 48.522 359.659C47.5571 359.614 46.7563 360.35 46.7335 361.302C46.7106 362.254 47.4743 363.062 48.4392 363.107Z" fill="black"/>
<path d="M28.5633 351.203C29.2418 351.234 30.2982 351.942 30.6675 352.504C31.1984 353.312 32.2822 353.557 33.0883 353.052C33.8943 352.546 34.1174 351.481 33.5864 350.673C32.6311 349.219 30.5795 347.844 28.646 347.755C27.6811 347.71 26.8803 348.446 26.8575 349.398C26.8346 350.35 27.5983 351.158 28.5633 351.203Z" fill="black"/>
<path d="M38.0296 366.708C37.0045 368.219 36.4237 370.143 36.4792 372.065C36.5432 374.283 37.4354 376.377 39.1808 378.085C39.6142 378.51 40.3057 378.514 40.7253 378.096C41.1449 377.678 41.1337 376.995 40.7003 376.57C39.3722 375.27 38.7109 373.719 38.6628 372.053C38.6204 370.583 39.0709 369.091 39.8531 367.938C40.1853 367.448 40.0464 366.776 39.5429 366.437C39.0393 366.097 38.3618 366.219 38.0296 366.708Z" fill="#C99584"/>
<path d="M73.7763 353.575C74.2447 352.844 73.9998 351.861 73.2351 351.403C72.4309 350.921 71.3974 351.223 71.0134 352.052L64.6267 365.833C64.5117 366.082 64.6073 366.38 64.8484 366.524C65.1026 366.677 65.4287 366.604 65.5844 366.361L73.7763 353.575Z" fill="#272727"/>
<path d="M339.757 643.872C341.48 651.241 342.282 665.698 342.377 686.422C342.407 693.053 342.375 699.118 342.28 709.376C342.189 719.321 342.173 721.342 342.173 724.999C342.173 731.038 347.707 735.934 354.533 735.934C361.359 735.934 366.893 731.038 366.893 724.999C366.893 721.429 366.908 719.42 366.999 709.555C367.095 699.213 367.127 693.079 367.096 686.334C366.995 664.065 366.146 648.773 363.964 639.441C362.581 633.527 356.041 629.725 349.356 630.948C342.672 632.172 338.374 637.958 339.757 643.872Z" fill="#EA872C"/>
<path d="M288.57 640.466C287.215 655.072 287.837 671.506 290.025 689.313C291.668 702.675 294.042 715.76 296.972 729.018C298.281 734.945 304.774 738.81 311.473 737.652C318.173 736.493 322.542 730.749 321.232 724.822C318.427 712.125 316.158 699.624 314.6 686.948C312.568 670.414 311.996 655.305 313.207 642.255C313.765 636.236 308.703 630.957 301.9 630.463C295.096 629.969 289.128 634.447 288.57 640.466Z" fill="#EA872C"/>
<path d="M281.042 622.151H335.158L330.481 678.416L319.792 716.428H295.74L281.376 693.876L279.037 667.925L281.042 622.151Z" fill="#484D5D"/>
<path fill-rule="evenodd" clip-rule="evenodd" d="M286.038 628.892L286.221 626.533L287.888 626.635L287.704 628.993L286.038 628.892ZM285.672 633.61L285.855 631.251L287.521 631.352L287.338 633.711L285.672 633.61ZM285.489 635.968L285.305 638.327L286.972 638.428L287.155 636.07L285.489 635.968ZM284.939 643.045L285.122 640.686L286.789 640.787L286.605 643.146L284.939 643.045ZM284.756 645.403L284.573 647.762L286.239 647.863L286.422 645.505L284.756 645.403ZM284.206 652.48L284.39 650.121L286.056 650.222L285.873 652.581L284.206 652.48ZM284.023 654.838L283.84 657.197L285.506 657.298L285.69 654.94L284.023 654.838ZM283.474 661.915L283.657 659.556L285.323 659.657L285.14 662.016L283.474 661.915ZM283.291 664.273L283.215 665.25L283.212 665.289L283.213 665.328C283.232 665.774 283.247 666.232 283.259 666.7L284.929 666.668C284.917 666.206 284.902 665.754 284.884 665.312L284.957 664.374L283.291 664.273ZM283.275 671.405C283.286 670.571 283.291 669.794 283.289 669.05L284.959 669.047C284.961 669.799 284.956 670.581 284.945 671.422L283.275 671.405ZM283.232 673.764C283.22 674.29 283.21 674.753 283.188 675.629L283.176 676.126L284.846 676.158L284.858 675.66C284.879 674.784 284.89 674.32 284.902 673.793L283.232 673.764ZM283.091 680.865C283.096 680.136 283.107 679.364 283.124 678.494L284.794 678.519C284.777 679.385 284.766 680.151 284.761 680.875L283.091 680.865ZM283.098 683.245C283.11 684.089 283.134 684.88 283.171 685.631L284.84 685.566C284.803 684.832 284.78 684.055 284.768 683.225L283.098 683.245ZM283.681 690.424C283.544 689.677 283.434 688.88 283.347 688.025L285.01 687.893C285.094 688.714 285.2 689.477 285.33 690.187L283.681 690.424ZM284.266 692.817C284.465 693.442 284.692 694.02 284.95 694.553C285.042 694.742 285.14 694.938 285.245 695.14L286.763 694.523C286.664 694.332 286.571 694.148 286.485 693.971C286.257 693.5 286.054 692.982 285.874 692.417L284.266 692.817ZM287.768 699.383C287.287 698.639 286.851 697.943 286.462 697.294L287.936 696.601C288.318 697.235 288.745 697.918 289.218 698.649L287.768 699.383ZM289.128 701.435C289.565 702.082 290.03 702.758 290.522 703.464L291.944 702.688C291.455 701.987 290.994 701.317 290.561 700.676L289.128 701.435ZM293.377 707.476C292.876 706.782 292.398 706.118 291.941 705.476L293.354 704.688C293.809 705.327 294.284 705.988 294.784 706.679L293.377 707.476ZM294.827 709.467C295.283 710.091 295.759 710.738 296.285 711.452L297.684 710.645C297.159 709.933 296.685 709.287 296.229 708.665L294.827 709.467ZM299.206 715.41C298.826 714.894 298.625 714.622 297.745 713.431L299.143 712.623C300.024 713.814 300.225 714.087 300.605 714.603L299.206 715.41Z" fill="#383B46"/>
<path d="M330.481 625.106H382.596L384.598 665.785L380.26 698.596L365.243 716.514L341.908 718.793L334.542 682.329L330.481 625.106Z" fill="#484D5D"/>
<path d="M325.804 652.297C323.666 650.878 323.578 639.686 323.8 634.268V629.539L333.655 628.505L332.485 656.434C331.149 655.645 327.942 653.715 325.804 652.297Z" fill="#3A4051"/>
<path d="M341.505 621.855H372.906L374.179 641.674C374.411 645.286 371.764 648.552 367.823 649.516L358.876 651.706L351.983 652.353C347.205 652.802 342.984 649.601 342.758 645.354L341.505 621.855Z" fill="#3A4051"/>
<path d="M282.044 503.936C285.384 491.819 301.753 488.272 309.102 488.272L327.379 496.252C328.381 498.714 328.983 504.054 323.371 505.709C316.355 507.778 313.337 524.919 303.649 521.372C293.962 517.826 280.459 509.685 282.044 503.936Z" fill="#757C82"/>
<path d="M372.238 502.458C369.386 492.114 356.871 491.129 352.529 488.272L328.799 499.207C327.797 501.67 327.195 507.009 332.808 508.664C339.823 510.733 342.841 527.874 352.529 524.328C362.216 520.781 373.823 508.208 372.238 502.458Z" fill="#757C82"/>
<path d="M294.738 515.462C287.388 525.51 276.699 538.514 270.018 549.153C246.3 577.82 258.326 606.783 303.089 598.508" stroke="#EBBAAA" stroke-width="87" stroke-linecap="round" stroke-linejoin="bevel"/>
<path d="M286.386 623.877C286.386 626.922 288.999 629.468 292.424 629.761L327.809 632.79L362.658 632.293C366.306 632.241 369.231 629.61 369.231 626.383V512.211C369.231 508.946 366.24 506.3 362.55 506.3H293.067C289.378 506.3 286.386 508.946 286.386 512.211V623.877Z" fill="#2A2C31"/>
<path d="M325.813 530.758C338.732 530.758 349.205 521.38 349.205 509.811C349.205 498.242 338.732 488.863 325.813 488.863C312.894 488.863 302.421 498.242 302.421 509.811C302.421 521.38 312.894 530.758 325.813 530.758Z" fill="#1C1C1C"/>
<rect x="313.714" y="484.139" width="25.6741" height="34.0711" rx="12.8371" fill="#EBBAAA"/>
<path d="M269.705 522.436C270.823 509.497 283.016 499.503 297.684 499.503H306.88C309.866 499.503 312.581 501.033 313.843 503.427L321.796 518.511L318.121 576.413L312.131 638.827C311.949 640.726 309.814 641.978 307.767 641.387L267.98 629.909C266.605 629.512 265.675 628.378 265.675 627.099V569.102L269.705 522.436Z" fill="#ABB0B4"/>
<path d="M314.335 558.014C316.088 558.014 317.509 556.757 317.509 555.207C317.509 553.656 316.088 552.399 314.335 552.399C312.582 552.399 311.162 553.656 311.162 555.207C311.162 556.757 312.582 558.014 314.335 558.014Z" fill="#4D4F56"/>
<path d="M312.331 578.111C314.083 578.111 315.504 576.854 315.504 575.303C315.504 573.752 314.083 572.495 312.331 572.495C310.578 572.495 309.157 573.752 309.157 575.303C309.157 576.854 310.578 578.111 312.331 578.111Z" fill="#4D4F56"/>
<path d="M308.99 615.053C310.743 615.053 312.164 613.796 312.164 612.245C312.164 610.695 310.743 609.438 308.99 609.438C307.238 609.438 305.817 610.695 305.817 612.245C305.817 613.796 307.238 615.053 308.99 615.053Z" fill="#4D4F56"/>
<path d="M305.984 635.445C307.736 635.445 309.157 634.188 309.157 632.637C309.157 631.087 307.736 629.83 305.984 629.83C304.231 629.83 302.81 631.087 302.81 632.637C302.81 634.188 304.231 635.445 305.984 635.445Z" fill="#4D4F56"/>
<path d="M260.431 604.179C266.632 606.656 275.199 609.063 284.484 610.507C297.689 612.561 311.033 612.51 323.943 609.654C331.64 607.952 336.319 601.053 334.395 594.244C332.471 587.435 324.672 583.295 316.976 584.997C308.307 586.914 298.946 586.95 289.458 585.474C282.62 584.411 276.337 582.646 272.255 581.015C265.025 578.127 256.517 580.97 253.252 587.367C249.987 593.763 253.201 601.29 260.431 604.179Z" fill="#EBBAAA"/>
<path d="M238.951 558.315C244.296 544.602 265.23 521.865 275.029 512.211L265.675 568.363C268.793 570.333 276.766 574.51 283.714 575.456C292.4 576.638 298.412 578.411 305.761 584.913C298.412 586.095 297.744 599.69 301.753 611.512C301.753 614.762 296.742 617.718 291.731 617.718L262.001 622.151L238.951 599.69C236.724 591.612 233.606 572.028 238.951 558.315Z" fill="#939AA0"/>
<path d="M249.641 566.294L266.343 568.658L249.641 572.5V566.294Z" fill="#7B838A"/>
<path d="M253.649 577.229L265.675 568.659L259.996 580.48L253.649 577.229Z" fill="#7B838A"/>
<path d="M314.781 584.618H305.093C297.41 584.618 295.072 593.188 295.072 597.326C295.072 607.374 295.517 607.867 297.41 613.285C302.31 613.383 307.432 613.876 310.772 611.512C308.434 596.439 311.106 589.642 314.781 584.618Z" fill="#7B838A"/>
<path d="M286.776 509.546C295.795 509.546 303.478 509.796 308.155 512.501C316.841 517.525 316.525 537.326 319.847 549.444C322.853 522.106 326.695 506.591 312.665 500.68L304.648 498.025L296.797 495.951C290.784 497.133 289.448 503.044 286.776 509.546Z" fill="#8A9096"/>
<path d="M302.142 520.776L310.828 508.659L318.177 518.117C319.179 531.908 320.415 557.364 319.346 547.67C318.277 537.977 307.598 525.603 302.142 520.776Z" fill="#8A9096"/>
<path d="M384.155 516.167C383.378 504.643 371.372 496.324 358.541 498.415C357.287 498.62 356.12 499.121 355.164 499.866L345.725 507.225L334.824 531.505L339.99 637.478C340.08 639.336 342.066 640.66 344.11 640.223L387.385 630.989C388.885 630.669 389.942 629.481 389.942 628.116V607.374L388.272 577.229L384.155 516.167Z" fill="#ABB0B4"/>
<path d="M368.808 509.546C359.788 509.546 352.105 509.796 347.428 512.501C338.743 517.525 339.059 537.326 335.736 549.444C332.73 522.106 328.888 506.591 342.919 500.68L350.936 498.025L358.786 495.951C364.799 497.133 366.135 503.044 368.808 509.546Z" fill="#8A9096"/>
<path d="M353.441 520.776L344.756 508.659L337.407 518.117C336.405 531.908 335.169 557.364 336.238 547.67C337.307 537.977 347.985 525.603 353.441 520.776Z" fill="#8A9096"/>
<path d="M272.636 457.799C283.349 457.799 292.034 450.511 292.034 441.521C292.034 432.53 283.349 425.242 272.636 425.242C261.923 425.242 253.238 432.53 253.238 441.521C253.238 450.511 261.923 457.799 272.636 457.799Z" fill="#EBBAAA"/>
<path d="M270.343 414.256C269.072 385.778 294.823 362.078 327.038 362.078C359.33 362.078 385.111 385.888 383.725 414.43L381.852 452.984C380.589 478.992 356.388 499.503 326.962 499.503C297.463 499.503 273.229 478.893 272.065 452.815L270.343 414.256Z" fill="#EED4CC"/>
<mask id="mask1_299_1" style="mask-type:alpha" maskUnits="userSpaceOnUse" x="310" y="451" width="30" height="20">
<path fill-rule="evenodd" clip-rule="evenodd" d="M310.159 460.93C310.159 455.625 315.02 451.325 321.016 451.325H329.033C335.029 451.325 339.89 455.625 339.89 460.93C339.89 466.235 335.029 470.535 329.033 470.535H321.016C315.02 470.535 310.159 466.235 310.159 460.93Z" fill="white"/>
</mask>
<g mask="url(#mask1_299_1)">
<rect x="297.466" y="464.033" width="67.8125" height="12.4126" fill="white"/>
</g>
<path d="M313.083 415.891L292.498 414.125C292.262 414.105 292.031 414.197 291.892 414.368L287.784 419.418C287.472 419.801 287.769 420.337 288.303 420.354L313.246 421.137C314.057 421.162 314.706 420.548 314.622 419.833L314.283 416.945C314.218 416.386 313.716 415.945 313.083 415.891Z" fill="#393939"/>
<path d="M338.192 415.891L358.777 414.125C359.013 414.105 359.244 414.197 359.383 414.368L363.491 419.418C363.803 419.801 363.506 420.337 362.972 420.354L338.029 421.137C337.218 421.162 336.569 420.548 336.653 419.833L336.992 416.945C337.058 416.386 337.559 415.945 338.192 415.891Z" fill="#393939"/>
<path d="M298.917 440.426L308.346 440.864C310.557 440.966 312.444 439.464 312.559 437.508C312.675 435.552 310.977 433.883 308.766 433.78L299.336 433.343C297.125 433.241 295.239 434.743 295.123 436.699C295.007 438.655 296.706 440.324 298.917 440.426Z" fill="black"/>
<path d="M354.446 433.047L345.016 433.485C342.805 433.587 341.106 435.256 341.222 437.212C341.338 439.168 343.225 440.671 345.435 440.568L354.865 440.131C357.076 440.028 358.774 438.359 358.659 436.403C358.543 434.447 356.656 432.945 354.446 433.047Z" fill="black"/>
<rect x="267.012" y="400.793" width="7.68319" height="40.7842" rx="3.84159" fill="#393939"/>
<path d="M322.143 441.827C322.07 442.297 321.606 443.03 319.699 445.688C319.269 446.288 318.951 446.744 318.648 447.198C317.758 448.53 317.145 449.65 316.768 450.746C316.234 452.304 316.207 453.768 316.89 455.12C318.336 457.983 322.202 459.162 328.644 459.162V454.138C326.117 454.138 324.276 453.932 323.097 453.572C322.669 453.442 322.374 453.305 322.194 453.178C322.11 453.119 322.084 453.089 322.074 453.07C321.908 452.742 322.296 451.612 323.538 449.752C323.804 449.353 324.094 448.938 324.495 448.38C324.568 448.278 324.643 448.173 324.741 448.037L324.989 447.692C325.194 447.408 325.341 447.202 325.485 446.999C325.865 446.462 326.165 446.021 326.431 445.602C327.171 444.432 327.619 443.474 327.769 442.51L322.143 441.827Z" fill="#EBBAAA"/>
<path d="M321.536 437.48L321.54 437.478C321.549 437.47 321.566 437.459 321.589 437.444C321.711 437.366 321.888 437.277 322.129 437.188C322.928 436.89 324.077 436.701 325.637 436.701C327.211 436.701 328.439 436.894 329.361 437.205C329.657 437.304 329.889 437.406 330.064 437.501C330.114 437.529 330.152 437.551 330.177 437.568C330.179 437.569 330.173 437.564 330.158 437.553C330.778 438.035 331.723 437.984 332.273 437.437C332.824 436.888 332.768 436.047 332.148 435.559C332.036 435.471 331.868 435.36 331.64 435.236C331.305 435.054 330.904 434.878 330.432 434.719C329.162 434.291 327.571 434.041 325.637 434.041C323.69 434.041 322.146 434.295 320.962 434.736C320.155 435.037 319.624 435.379 319.328 435.677C318.782 436.23 318.845 437.07 319.47 437.554C320.09 438.034 321.032 437.982 321.58 437.44C321.56 437.459 321.545 437.473 321.536 437.48Z" fill="#D5A600"/>
<path fill-rule="evenodd" clip-rule="evenodd" d="M330.233 439.139C330.293 438.132 330.314 437.649 330.314 437.055C330.314 433.384 331.29 430.672 333.766 428.639C336.767 426.175 341.892 424.879 349.655 424.879C358.198 424.879 363.25 425.704 366.215 427.623C369.021 429.438 370.066 432.222 370.066 437.055C370.066 437.68 370.087 438.254 370.136 439.161L370.147 439.372C370.179 439.967 370.187 440.129 370.197 440.391C370.241 441.597 370.188 442.461 369.979 443.337C369.472 445.468 367.985 447.557 364.84 450.34C362.484 452.424 360.504 453.493 358.142 453.996C356.347 454.378 354.943 454.437 350.509 454.434C350.104 454.433 349.9 454.433 349.655 454.433C349.126 454.433 348.674 454.436 347.936 454.442L347.771 454.444C346.481 454.455 345.947 454.456 345.307 454.44C343.974 454.407 342.993 454.292 342.056 454.039C340.049 453.495 338.155 452.269 335.04 449.514C332.185 446.988 330.811 444.954 330.357 442.85C330.175 442.006 330.135 441.179 330.183 440.044C330.194 439.802 330.206 439.592 330.233 439.139ZM335.812 430.588C334.047 432.038 333.321 434.055 333.321 437.055C333.321 437.711 333.298 438.227 333.235 439.28C333.209 439.72 333.197 439.922 333.188 440.145C333.147 441.096 333.179 441.739 333.311 442.352C333.64 443.878 334.706 445.457 337.166 447.633C339.961 450.106 341.513 451.11 342.935 451.495C343.578 451.669 344.306 451.754 345.392 451.781C345.979 451.796 346.49 451.795 347.741 451.784L347.906 451.782C348.654 451.776 349.114 451.773 349.655 451.773C349.902 451.773 350.107 451.773 350.512 451.774C354.678 451.777 355.969 451.723 357.438 451.41C359.22 451.03 360.727 450.217 362.714 448.459C365.481 446.011 366.667 444.345 367.037 442.789C367.188 442.157 367.229 441.488 367.192 440.476C367.183 440.233 367.175 440.076 367.144 439.499L367.133 439.287C367.082 438.341 367.06 437.733 367.06 437.055C367.06 432.985 366.306 430.977 364.44 429.77C362.137 428.279 357.603 427.539 349.655 427.539C342.581 427.539 338.166 428.655 335.812 430.588Z" fill="#D5A600"/>
<path fill-rule="evenodd" clip-rule="evenodd" d="M320.519 439.139C320.459 438.132 320.438 437.649 320.438 437.055C320.438 433.384 319.462 430.672 316.985 428.639C313.985 426.175 308.86 424.879 301.097 424.879C292.554 424.879 287.502 425.704 284.537 427.623C281.731 429.438 280.685 432.222 280.685 437.055C280.685 437.68 280.664 438.254 280.616 439.161L280.604 439.371C280.575 439.916 280.565 440.125 280.555 440.391C280.511 441.597 280.564 442.461 280.773 443.338C281.279 445.468 282.767 447.557 285.912 450.34C288.267 452.424 290.248 453.493 292.61 453.996C294.404 454.378 295.809 454.437 300.243 454.434C300.647 454.433 300.851 454.433 301.097 454.433C301.626 454.433 302.077 454.436 302.816 454.442L302.981 454.444C304.271 454.455 304.805 454.456 305.444 454.44C306.778 454.407 307.759 454.292 308.696 454.039C310.703 453.495 312.597 452.269 315.712 449.514C318.567 446.988 319.941 444.954 320.394 442.85C320.576 442.006 320.617 441.179 320.568 440.044C320.558 439.802 320.546 439.592 320.519 439.139ZM314.94 430.588C316.705 432.038 317.431 434.055 317.431 437.055C317.431 437.711 317.454 438.227 317.517 439.28C317.543 439.72 317.554 439.922 317.564 440.146C317.605 441.096 317.573 441.739 317.441 442.352C317.112 443.878 316.045 445.457 313.586 447.633C310.791 450.106 309.239 451.11 307.816 451.495C307.174 451.669 306.446 451.754 305.359 451.781C304.772 451.796 304.262 451.795 303.011 451.784L302.846 451.782C302.098 451.776 301.638 451.773 301.097 451.773C300.85 451.773 300.645 451.773 300.239 451.774C296.074 451.777 294.783 451.723 293.314 451.41C291.532 451.03 290.025 450.217 288.038 448.459C285.271 446.011 284.085 444.345 283.714 442.789C283.564 442.157 283.523 441.488 283.56 440.477C283.569 440.23 283.579 440.028 283.607 439.498L283.619 439.287C283.669 438.341 283.692 437.733 283.692 437.055C283.692 432.985 284.446 430.977 286.312 429.77C288.615 428.279 293.148 427.539 301.097 427.539C308.171 427.539 312.586 428.655 314.94 430.588Z" fill="#D5A600"/>
<path d="M284.382 383.652C274.36 389.82 277.256 399.315 274.36 407.295C274.36 417.044 270.562 429.097 266.343 429.46C262.569 429.785 258.326 419.514 258.326 409.955C258.326 378.923 278.091 359.713 308.823 359.713C318.897 359.713 355.869 351.438 355.869 377.445C340.837 384.834 296.074 376.456 284.382 383.652Z" fill="#393939"/>
<path d="M309.102 380.696C337.462 380.696 365.517 386.755 371.195 392.666C374.094 405.386 372.244 427.391 388.606 427.391C395.955 427.391 394.669 398.108 393.951 392.666C388.925 354.578 340.377 346.045 311.441 353.802C293.735 358.549 280.742 380.696 309.102 380.696Z" fill="#2C2929"/>
<path d="M302.972 361.492C303.818 359.397 306.566 356.796 310.79 354.752C316.482 351.998 324.263 350.447 334.132 350.551C335.239 350.563 336.147 349.779 336.16 348.799C336.173 347.82 335.286 347.017 334.18 347.005C323.651 346.894 315.193 348.58 308.867 351.641C303.829 354.078 300.397 357.326 299.197 360.299C298.825 361.221 299.368 362.236 300.41 362.565C301.453 362.895 302.6 362.414 302.972 361.492Z" fill="#2C2929"/>
<path d="M277.84 363.405C286.501 360.033 293.76 359.475 298.326 362.089C299.255 362.621 300.496 362.385 301.097 361.563C301.698 360.741 301.433 359.643 300.503 359.111C294.542 355.698 285.995 356.356 276.226 360.159C275.212 360.553 274.753 361.6 275.198 362.496C275.644 363.393 276.827 363.799 277.84 363.405Z" fill="#393939"/>
<path d="M322.464 389.858C314.056 383.764 299.748 378.051 292.733 380.317C314.447 372.633 313.11 372.856 333.488 384.678C349.789 394.135 373.463 394.882 379.587 393.996C372.572 399.611 371.57 399.426 366.893 400.202C350.483 402.924 332.151 396.879 322.464 389.858Z" fill="#2C2929"/>
<path d="M334.824 383.614C326.416 377.52 310.772 376.073 303.757 378.339C325.47 370.655 329.479 366.517 349.856 378.339C366.158 387.796 369.788 391.343 375.912 390.456C382.037 389.569 386.936 389.119 375.912 395.473C362.884 401.827 344.511 390.635 334.824 383.614Z" fill="#393939"/>
<path d="M246.904 187.286C253.332 188.367 260.053 189.122 266.278 191.177C267.723 191.654 268.099 191.99 269.078 192.829" stroke="black" stroke-linecap="round" stroke-linejoin="round"/>
<path d="M269.078 192.829C270.67 190.384 273.509 188.933 276.133 187.818C280.153 186.108 284.455 184.723 288.731 184.01" stroke="black" stroke-linecap="round" stroke-linejoin="round"/>
<path d="M269.538 193.701C270.08 192.926 270.599 192.177 271.268 191.509C271.748 191.029 272.161 190.49 272.634 190.005C272.827 189.807 273.032 189.612 273.246 189.437C273.463 189.26 273.722 189.146 273.935 188.963C274.122 188.803 274.238 188.608 274.461 188.508C274.664 188.417 274.872 188.32 275.087 188.259" stroke="black" stroke-linecap="round" stroke-linejoin="round"/>
<path d="M269.032 194.047C268.225 193.055 267.394 192.04 266.145 191.638C265.996 191.59 265.902 191.445 265.78 191.352C265.529 191.159 265.287 190.995 264.98 190.915C264.767 190.859 264.556 190.789 264.344 190.728C263.988 190.625 263.723 190.434 263.403 190.233" stroke="black" stroke-linecap="round" stroke-linejoin="round"/>
<path d="M269.192 193.38C268.979 193.478 269.328 193.384 269.085 193.354" stroke="black" stroke-linecap="round" stroke-linejoin="round"/>
<path d="M288.093 170.187C290.871 170.312 293.647 170.596 296.407 170.921C297.94 171.101 299.472 171.283 300.997 171.522C302.285 171.724 304.274 172.039 305.606 172.632C306.499 173.029 307.226 174.092 307.902 174.773C308.522 175.397 309.127 176.067 309.741 176.682" stroke="black" stroke-linecap="round" stroke-linejoin="round"/>
<path d="M309.741 176.682C310.423 175.599 311.117 174.598 312.03 173.691C312.521 173.203 313.008 172.743 313.667 172.5C314.535 172.179 315.486 171.987 316.379 171.763C318.449 171.242 320.585 170.58 322.722 170.412C323.418 170.358 324.128 170.397 324.825 170.397" stroke="black" stroke-linecap="round" stroke-linejoin="round"/>
<path d="M324.965 170.327C325.729 170.32 326.49 170.257 327.254 170.257C327.942 170.257 328.608 170.048 329.294 170.048" stroke="black" stroke-linecap="round" stroke-linejoin="round"/>
<path d="M302.75 172.125C303.893 172.323 305.269 172.551 306.25 173.194C307.331 173.904 308.073 174.885 308.819 175.931C309.17 176.421 309.443 176.943 309.875 177.375C309.989 177.489 310.088 177.665 310.153 177.444C310.372 176.696 310.632 175.982 311.09 175.34C312.006 174.058 312.952 173.64 314.417 173.278C315.27 173.067 316.371 172.85 317.125 172.347C318.588 171.372 320.338 170.5 322.125 170.5" stroke="black" stroke-linecap="round" stroke-linejoin="round"/>
<path d="M307.75 174.25C308.971 174.476 310.199 174.673 311.417 174.917C311.979 175.029 310.323 174.762 310.25 174.75" stroke="black" stroke-linecap="round" stroke-linejoin="round"/>
<path d="M310 175.625C309.578 175.543 309.125 175.147 309.125 175.5" stroke="black" stroke-linecap="round" stroke-linejoin="round"/>
</g>
<defs>
<filter id="filter0_d_299_1" x="25" y="301" width="148" height="148" filterUnits="userSpaceOnUse" color-interpolation-filters="sRGB">
<feFlood flood-opacity="0" result="BackgroundImageFix"/>
<feColorMatrix in="SourceAlpha" type="matrix" values="0 0 0 0 0 0 0 0 0 0 0 0 0 0 0 0 0 0 127 0" result="hardAlpha"/>
<feOffset dy="4"/>
<feGaussianBlur stdDeviation="2"/>
<feColorMatrix type="matrix" values="0 0 0 0 0 0 0 0 0 0 0 0 0 0 0 0 0 0 0.25 0"/>
<feBlend mode="normal" in2="BackgroundImageFix" result="effect1_dropShadow_299_1"/>
<feBlend mode="normal" in="SourceGraphic" in2="effect1_dropShadow_299_1" result="shape"/>
</filter>
<clipPath id="clip0_299_1">
<rect width="360" height="640" fill="white"/>
</clipPath>
</defs>
</svg>
